<?xml version="1.0" encoding="UTF-8" standalone="no"?>
<svg
   xmlns:dc="http://purl.org/dc/elements/1.1/"
   xmlns:cc="http://creativecommons.org/ns#"
   xmlns:rdf="http://www.w3.org/1999/02/22-rdf-syntax-ns#"
   xmlns:svg="http://www.w3.org/2000/svg"
   xmlns="http://www.w3.org/2000/svg"
   xmlns:sodipodi="http://sodipodi.sourceforge.net/DTD/sodipodi-0.dtd"
   xmlns:inkscape="http://www.inkscape.org/namespaces/inkscape"
   width="350.43701"
   height="131.06"
   viewBox="0 0 350.43701 131.06"
   data-svgdocument=""
   id="_UvrcDkox5wHXEUzaO9hmm"
   class="fl-svgdocument"
   x="0"
   y="0"
   overflow="hidden"
   style="overflow:visible"
   version="1.1"
   sodipodi:docname="mz-logo_mono_white.svg"
   inkscape:version="1.0.1 (3bc2e813f5, 2020-09-07)">
  <metadata
     id="metadata35">
    <rdf:RDF>
      <cc:Work
         rdf:about="">
        <dc:format>image/svg+xml</dc:format>
        <dc:type
           rdf:resource="http://purl.org/dc/dcmitype/StillImage" />
        <dc:title></dc:title>
      </cc:Work>
    </rdf:RDF>
  </metadata>
  <sodipodi:namedview
     pagecolor="#ffffff"
     bordercolor="#666666"
     borderopacity="1"
     objecttolerance="10"
     gridtolerance="10"
     guidetolerance="10"
     inkscape:pageopacity="0"
     inkscape:pageshadow="2"
     inkscape:window-width="1920"
     inkscape:window-height="1009"
     id="namedview33"
     showgrid="false"
     inkscape:zoom="1.6445312"
     inkscape:cx="256"
     inkscape:cy="126.47981"
     inkscape:window-x="-8"
     inkscape:window-y="-8"
     inkscape:window-maximized="1"
     inkscape:current-layer="_UvrcDkox5wHXEUzaO9hmm"
     inkscape:document-rotation="0" />
  <defs
     data-uid="o_f43a2kin8_80"
     id="defs12">
    <linearGradient
       x1="0.14649999"
       y1="0.85339999"
       x2="0.85350001"
       y2="0.14659999"
       id="g_-516872007_1"
       gradientUnits="objectBoundingBox"
       data-uid="o_f43a2kin8_77">
      <stop
         offset="0%"
         stop-color="rgb(116, 0, 255)"
         stop-opacity="1"
         data-uid="o_f43a2kin8_78"
         id="stop2" />
      <stop
         offset="100%"
         stop-color="rgb(173, 59, 119)"
         stop-opacity="1.00"
         data-uid="o_f43a2kin8_79"
         id="stop4" />
    </linearGradient>
    <linearGradient
       x1="79.35598"
       y1="21.254152"
       x2="82.79527"
       y2="17.815836"
       id="g_-488304539_2"
       gradientUnits="userSpaceOnUse"
       data-uid="o_f43a2kin8_85"
       gradientTransform="scale(0.99992292,1.0000771)">
      <stop
         offset="0%"
         stop-color="rgb(116, 0, 255)"
         stop-opacity="1.00"
         data-uid="o_f43a2kin8_86"
         id="stop7" />
      <stop
         offset="100%"
         stop-color="rgb(173, 59, 119)"
         stop-opacity="1.00"
         data-uid="o_f43a2kin8_87"
         id="stop9" />
    </linearGradient>
  </defs>
  <g
     transform="translate(-47.999766,-195.87532)"
     data-uid="o_f43a2kin8_81"
     id="g30"
     style="fill:#ffffff">
    <path
       id="_1QTd3wo_sWXn34LSqHfIq"
       fill="#172b2b"
       transform="matrix(0.63591804,0,0,0.63591804,167.0262,248.02049)"
       text="Maciej"
       text-anchor="start"
       font-size="100px"
       letter-spacing="0"
       side="left"
       offset="0"
       dx="0"
       dy="0"
       space="preserve"
       href=""
       font-family="Offside"
       font-scale="contain"
       x="0"
       y="0"
       data-fl-textpath=""
       data-uid="o_f43a2kin8_4"
       d="m 66.4,-1.8 v 0 -65.2 h -1 q -3.2,0 -4,0.9 -0.8,0.9 -1.7,4.5 v 0 L 46.6,-9.7 q -0.5,2.3 -3.9,2.3 -3.4,0 -3.9,-2.3 v 0 L 25.7,-61.6 Q 24.8,-65.2 24,-66.1 23.2,-67 20,-67 v 0 h -1 v 65.2 q 0,2.3 -4,2.3 -4,0 -4,-2.3 v 0 -64.7 q 0,-4.4 1.05,-5.95 Q 13.1,-74 17,-74 v 0 h 2.2 q 7,0 9.45,1.6 2.45,1.6 3.95,8 v 0 l 10.1,41.5 10.1,-41.5 q 1.5,-6.4 3.95,-8 2.45,-1.6 9.45,-1.6 v 0 h 2.2 q 3.9,0 4.95,1.55 1.05,1.55 1.05,5.95 v 0 64.7 q 0,2.3 -4,2.3 -4,0 -4,-2.3 z M 121.7,0 V 0 H 110 q -8.8,0 -12.7,-3.6 -3.9,-3.6 -3.9,-12.2 v 0 -0.8 q 0,-8.5 3.5,-11.7 3.5,-3.2 12.5,-4.1 v 0 l 17.3,-1.7 v -11.1 q 0,-7.8 -13.6,-7.8 v 0 H 99.4 q -2,0 -2,-3.5 0,-3.5 2,-3.5 v 0 h 13.7 q 9.8,0 15.7,3.75 5.9,3.75 5.9,12.05 v 0 29.5 q 0,6.5 2.3,10.3 v 0 q 0.7,1.2 0.7,1.5 v 0 q 0,1.2 -1.9,2.55 Q 133.9,1 132.6,1 v 0 q -2.2,0 -4.05,-4.15 -1.85,-4.15 -1.85,-10.55 v 0 -13.4 l -16.7,1.7 q -5.4,0.6 -7,2.4 -1.6,1.8 -1.6,6.4 v 0 0.8 q 0,4.8 1.65,6.8 1.65,2 6.95,2 v 0 h 11.7 q 2,0 2,3.5 0,3.5 -2,3.5 z m 42,-46.7 v 0 33.4 q 0,7.8 12.8,7.8 12.8,0 12.8,-7.8 v 0 -4.2 q 0,-2.3 4,-2.3 4,0 4,2.3 v 0 3.2 q 0,8.3 -5.65,12.05 Q 186,1.5 176.55,1.5 167.1,1.5 161.4,-2.25 155.7,-6 155.7,-14.3 v 0 -31.4 q 0,-8.3 5.7,-12.05 5.7,-3.75 15.15,-3.75 9.45,0 15.1,3.75 5.65,3.75 5.65,12.05 v 0 3.2 q 0,2.3 -4,2.3 -4,0 -4,-2.3 v 0 -4.2 q 0,-7.8 -12.8,-7.8 -12.8,0 -12.8,7.8 z m 60.6,-11.5 v 0 46.5 q 0,3.2 1.5,5.95 1.5,2.75 1.5,2.85 v 0 q 0,1.2 -1.9,2.55 Q 223.5,1 222.2,1 v 0 q -2.1,0 -4,-3.65 -1.9,-3.65 -1.9,-8.05 v 0 -47.5 q 0,-2.3 4,-2.3 4,0 4,2.3 z m 0.3,-21.3 v 0 8.7 q 0,2.5 -4.35,2.5 -4.35,0 -4.35,-2.5 v 0 -8.7 q 0,-2.5 4.35,-2.5 4.35,0 4.35,2.5 z m 64.5,33.6 v 0 3 q 0,8.5 -3.5,11.7 -3.5,3.2 -12.8,4.1 v 0 l -19.5,1.9 v 11.9 q 0,7.8 13,7.8 v 0 q 14.8,0 14.8,-6.8 v 0 -3.8 q 0,-2.3 4,-2.3 4,0 4,2.3 v 0 2.8 q 0,14.8 -22,14.8 v 0 q -9.7,0 -15.75,-3.8 -6.05,-3.8 -6.05,-12 v 0 -31.4 q 0,-8.3 6.4,-12.05 6.4,-3.75 16.7,-3.75 10.3,0 15.5,3.6 5.2,3.6 5.2,12 z m -35.8,-0.8 v 0 14.5 l 18.8,-1.9 q 5.7,-0.6 7.35,-2.4 1.65,-1.8 1.65,-6.4 v 0 -3.8 q 0,-7.8 -13.9,-7.8 -13.9,0 -13.9,7.8 z m 65,-32.8 v 0 8.7 q 0,2.5 -4.35,2.5 -4.35,0 -4.35,-2.5 v 0 -8.7 q 0,-2.5 4.35,-2.5 4.35,0 4.35,2.5 z m -0.2,21.3 v 0 67.4 q 0,15.8 -20.6,15.8 v 0 H 294 q -2,0 -2,-3.5 0,-3.5 2,-3.5 v 0 h 3.5 q 12.6,0 12.6,-7.8 v 0 -68.4 q 0,-2.3 4,-2.3 4,0 4,2.3 z"
       style="fill:#ffffff" />
    <path
       id="_E5uoMq99VZhwtPtcRHveS"
       fill="#172b2b"
       transform="matrix(0.63591804,0,0,0.63591804,167.02597,311.03748)"
       text="Zgódka"
       text-anchor="start"
       font-size="100px"
       letter-spacing="0"
       side="left"
       offset="0"
       dx="0"
       dy="0"
       space="preserve"
       href=""
       font-family="Offside"
       font-scale="contain"
       x="0"
       y="0"
       data-fl-textpath=""
       data-uid="o_f43a2kin8_5"
       d="m 14,-9 v 0 2 h 37.6 q 2,0 2,3.5 0,3.5 -2,3.5 V 0 H 8 Q 6,0 6,-3.5 v 0 -5.7 q 0,-3.6 1.05,-5.55 1.05,-1.95 1.4,-2.5 0.35,-0.55 1.5,-1.9 1.15,-1.35 1.55,-1.85 v 0 q 2,-2.5 4.1,-4.6 v 0 l 25.5,-28.7 q 2.5,-2.9 3.45,-4.6 0.95,-1.7 0.95,-4.1 v 0 -4 H 11.9 q -2,0 -2,-3.5 0,-3.5 2,-3.5 v 0 h 39.6 q 2,0 2,3.5 v 0 7.7 q 0,3.6 -1.05,5.55 -1.05,1.95 -1.4,2.5 -0.35,0.55 -1.5,1.9 Q 48.4,-51.5 48,-51 v 0 q -2,2.5 -4.1,4.6 v 0 l -25.5,28.7 q -2.5,2.9 -3.45,4.6 Q 14,-11.4 14,-9 Z m 98.8,-35.2 v 0 32.2 q 0,2.3 -4,2.3 -4,0 -4,-2.3 v 0 -33.2 q 0,-7.4 -12.5,-7.8 v 0 h -1.1 q -13.7,0 -13.7,7.8 v 0 27.6 q 0,5.8 1.75,8.2 Q 81,-7 85.3,-7 v 0 h 7.9 q 9.5,0 14.55,3.7 5.05,3.7 5.05,12.1 v 0 0.4 q 0,8.4 -5.05,12.1 Q 102.7,25 93.2,25 v 0 H 70.5 q -2,0 -2,-3.5 0,-3.5 2,-3.5 v 0 h 22.7 q 5.9,0 8.75,-1.8 2.85,-1.8 2.85,-6 v 0 -2.4 q 0,-4.2 -2.85,-6 Q 99.1,0 93.2,0 V 0 H 85.3 Q 76.7,0 73.1,-4.15 69.5,-8.3 69.5,-17.6 v 0 -26.6 q 0,-8.3 5.95,-12.05 Q 81.4,-60 91.2,-60 v 0 h 14 q 6.5,0 10.3,-2.2 v 0 q 1.2,-0.8 1.5,-0.8 v 0 q 1.2,0 2.55,1.9 1.35,1.9 1.35,3.2 v 0 q 0,1.8 -2.95,3.1 -2.95,1.3 -7.85,1.7 v 0 q 2.7,3.7 2.7,8.9 z m 56.3,30.9 v 0 -33.4 q 0,-7.8 -13.65,-7.8 -13.65,0 -13.65,7.8 v 0 33.4 q 0,7.8 13.65,7.8 13.65,0 13.65,-7.8 z m 8,-32.4 v 0 31.4 q 0,8.3 -5.9,12.05 -5.9,3.75 -15.7,3.75 -9.8,0 -15.75,-3.75 Q 133.8,-6 133.8,-14.3 v 0 -31.4 q 0,-8.3 5.9,-12.05 5.9,-3.75 15.7,-3.75 9.8,0 15.75,3.75 5.95,3.75 5.95,12.05 z m -9,-30.1 -18.5,8.8 -0.7,0.3 q -0.9,0 -2.05,-1.7 -1.15,-1.7 -1.15,-2.65 0,-0.95 0.7,-1.55 v 0 l 16.9,-11.6 q 0.5,-0.4 1.6,-0.4 1.1,0 2.7,2.45 1.6,2.45 1.6,4.1 0,1.65 -1.1,2.25 z m 72.3,-1.9 v 0 63.4 q 0,8.3 -5.9,12.05 Q 228.6,1.5 218.8,1.5 209,1.5 203.05,-2.25 197.1,-6 197.1,-14.3 v 0 -29.9 q 0,-8.3 5.9,-12.05 5.9,-3.75 15.7,-3.75 v 0 h 8.7 q 2,0 2,3.5 0,3.5 -2,3.5 v 0 h -8.7 q -13.6,0 -13.6,7.8 v 0 31.9 q 0,7.8 13.65,7.8 13.65,0 13.65,-7.8 v 0 -64.4 q 0,-2.3 4,-2.3 4,0 4,2.3 z m 30,0 v 0 75.9 q 0,2.3 -4,2.3 -4,0 -4,-2.3 v 0 -75.9 q 0,-2.3 4,-2.3 4,0 4,2.3 z m 34.8,76.4 v 0 q 0,1.8 -3.5,1.8 -3.5,0 -4.2,-2.3 v 0 l -5.9,-20.3 q -1,-3.5 -2.55,-4.45 -1.55,-0.95 -6.95,-0.95 v 0 h -6.3 q -2,0 -2,-3.5 0,-3.5 2,-3.5 v 0 h 3.8 q 4.2,-0.1 5.5,-1.05 1.3,-0.95 2.5,-4.35 v 0 l 6.7,-18.3 q 0.8,-2.3 4.25,-2.3 3.45,0 3.45,1.8 v 0 q 0,0.1 -1,3.1 v 0 l -6.5,18.5 q -0.9,2.5 -2.5,3.8 v 0 q 4.6,1.7 6.5,8.4 v 0 l 6,20.9 q 0.7,2.6 0.7,2.7 z M 347.9,0 v 0 h -11.7 q -8.8,0 -12.7,-3.6 -3.9,-3.6 -3.9,-12.2 v 0 -0.8 q 0,-8.5 3.5,-11.7 3.5,-3.2 12.5,-4.1 v 0 l 17.3,-1.7 v -11.1 q 0,-7.8 -13.6,-7.8 v 0 h -13.7 q -2,0 -2,-3.5 0,-3.5 2,-3.5 v 0 h 13.7 q 9.8,0 15.7,3.75 5.9,3.75 5.9,12.05 v 0 29.5 q 0,6.5 2.3,10.3 v 0 q 0.7,1.2 0.7,1.5 v 0 q 0,1.2 -1.9,2.55 Q 360.1,1 358.8,1 v 0 q -2.2,0 -4.05,-4.15 -1.85,-4.15 -1.85,-10.55 v 0 -13.4 l -16.7,1.7 q -5.4,0.6 -7,2.4 -1.6,1.8 -1.6,6.4 v 0 0.8 q 0,4.8 1.65,6.8 1.65,2 6.95,2 v 0 h 11.7 q 2,0 2,3.5 0,3.5 -2,3.5 z"
       style="fill:#ffffff" />
    <g
       id="_UnGaE1vwjOuJLzNs4BCBI"
       transform="matrix(0.8125,0,0,0.8125,48,48)"
       fill="url(#g_-516872007_1)"
       data-uid="o_f43a2kin8_6"
       style="fill:#ffffff">
      <path
         id="_-ixtcTtqQw2bTqkFRNNwg"
         d="m 96.369,50.611 c 0,-10e-4 0,-0.002 0,-0.004 0,-0.632 -0.268,-1.263 -0.705,-1.724 -0.681,-0.656 -1.748,-0.874 -2.647,-0.51 -0.292,0.121 -0.56,0.292 -0.802,0.51 -0.436,0.461 -0.704,1.092 -0.704,1.724 0,0.014 0.004,0.027 0.004,0.041 C 91.495,73.524 72.88,92.127 50,92.127 v 0.03 c -0.632,0.002 -1.265,0.232 -1.724,0.691 -0.438,0.436 -0.705,1.067 -0.705,1.701 0,0.655 0.242,1.262 0.705,1.724 0.461,0.46 1.069,0.705 1.724,0.705 v 0.007 c 25.571,0 46.374,-20.803 46.374,-46.374 z"
         stroke="none"
         fill="url(#g_-516872007_1)"
         transform="matrix(1.3852805,0,0,1.3852805,-6.331367,187.49109)"
         stroke-width="1"
         data-uid="o_f43a2kin8_7"
         style="fill:#ffffff" />
      <path
         id="_pQ7fFyXDN--B4bq4tkzct"
         d="m 17.208,79.975 c -0.948,0.946 -0.948,2.476 0,3.423 0.485,0.463 1.092,0.705 1.724,0.705 0.607,0 1.238,-0.242 1.725,-0.705 0.923,-0.946 0.923,-2.477 0,-3.423 -0.971,-0.949 -2.503,-0.949 -3.449,0 z"
         stroke="none"
         fill="url(#g_-516872007_1)"
         transform="matrix(1.3852805,0,0,1.3852805,-6.2294574,187.40025)"
         stroke-width="1"
         data-uid="o_f43a2kin8_8"
         style="fill:#ffffff" />
      <path
         id="_dspI2JXDHAXBXqX9Q5vzG"
         d="m 39.239,90.711 c -1.287,-0.342 -2.624,0.436 -2.964,1.724 -0.364,1.286 0.414,2.624 1.701,2.986 0.218,0.05 0.438,0.074 0.632,0.074 1.069,0 2.064,-0.728 2.356,-1.798 0.34,-1.311 -0.438,-2.623 -1.725,-2.986 z"
         stroke="none"
         fill="url(#g_-516872007_1)"
         transform="matrix(1.3852805,0,0,1.3852805,-5.7975717,188.27699)"
         stroke-width="1"
         data-uid="o_f43a2kin8_9"
         style="fill:#ffffff" />
      <path
         id="_2qb_rkwKZnE3VM86JAbsE"
         d="m 29.231,86.558 c -1.166,-0.657 -2.647,-0.268 -3.328,0.899 -0.655,1.165 -0.267,2.647 0.899,3.326 0.389,0.221 0.802,0.318 1.214,0.318 0.827,0 1.652,-0.439 2.114,-1.214 0.656,-1.168 0.267,-2.651 -0.899,-3.329 z"
         stroke="none"
         fill="url(#g_-516872007_1)"
         transform="matrix(1.3852805,0,0,1.3852805,-4.9671359,187.43295)"
         stroke-width="1"
         data-uid="o_f43a2kin8_10"
         style="fill:#ffffff" />
      <path
         id="_g5vYrJHOsAKL7hVVi1Qc6"
         d="m 10.721,70.477 c -1.166,0.678 -1.554,2.161 -0.898,3.328 0.024,0 0.024,0 0.024,0 0.438,0.776 1.263,1.214 2.089,1.214 0.414,0 0.827,-0.097 1.215,-0.342 1.167,-0.655 1.555,-2.137 0.899,-3.302 -0.68,-1.166 -2.162,-1.555 -3.329,-0.898 z"
         stroke="none"
         fill="url(#g_-516872007_1)"
         transform="matrix(1.3852805,0,0,1.3852805,-6.2406235,187.5452)"
         stroke-width="1"
         data-uid="o_f43a2kin8_11"
         style="fill:#ffffff" />
      <path
         id="_uLJozuwtP6HTTVkwVH-UH"
         d="M 9.896,61.368 C 9.532,60.08 8.22,59.302 6.908,59.667 c -1.287,0.339 -2.065,1.677 -1.7,2.963 0.291,1.094 1.262,1.798 2.332,1.798 0.218,0 0.413,-0.024 0.631,-0.074 1.288,-0.338 2.065,-1.674 1.725,-2.986 z"
         stroke="none"
         fill="url(#g_-516872007_1)"
         transform="matrix(1.3852805,0,0,1.3852805,-5.7041726,188.35117)"
         stroke-width="1"
         data-uid="o_f43a2kin8_12"
         style="fill:#ffffff" />
      <path
         id="_Ip4rHySFXWoy3VpWHFJMT"
         d="m 6.058,53.035 c 0.656,0 1.263,-0.242 1.725,-0.705 0.438,-0.46 0.704,-1.067 0.704,-1.723 0,-0.006 -0.002,-0.011 -0.002,-0.017 C 8.496,27.708 27.115,9.096 50,9.096 c 0.146,0 0.315,-0.025 0.485,-0.049 0.146,-0.025 0.292,-0.074 0.438,-0.146 0.146,-0.049 0.292,-0.122 0.438,-0.219 0.121,-0.096 0.242,-0.193 0.364,-0.291 0.218,-0.243 0.388,-0.51 0.51,-0.802 C 52.381,7.297 52.43,6.982 52.43,6.666 52.43,6.349 52.381,6.034 52.235,5.742 52.113,5.451 51.943,5.183 51.725,4.941 51.603,4.844 51.482,4.746 51.361,4.649 51.215,4.552 51.069,4.478 50.923,4.43 50.777,4.358 50.631,4.309 50.485,4.285 50.323,4.257 50.161,4.254 50,4.256 V 4.238 C 24.43,4.238 3.627,25.041 3.627,50.611 H 3.63 c 0,0.314 0.049,0.629 0.17,0.919 0.121,0.291 0.315,0.559 0.534,0.801 0.243,0.221 0.486,0.389 0.802,0.536 0.291,0.121 0.606,0.168 0.922,0.168 z"
         stroke="none"
         fill="url(#g_-516872007_1)"
         transform="matrix(1.3852805,0,0,1.3852805,-5.0244131,187.43494)"
         stroke-width="1"
         data-uid="o_f43a2kin8_13"
         style="fill:#ffffff" />
      <path
         id="_HGwyy7ZnF539dP6BTXIPI"
         d="m 90.102,39.846 c 0.292,1.094 1.264,1.798 2.356,1.798 0.195,0 0.413,-0.025 0.607,-0.074 1.312,-0.364 2.09,-1.676 1.724,-2.988 -0.339,-1.287 -1.675,-2.064 -2.963,-1.725 -1.311,0.366 -2.063,1.678 -1.724,2.989 z"
         stroke="none"
         fill="url(#g_-516872007_1)"
         transform="matrix(1.3852805,0,0,1.3852805,-5.5691471,188.07309)"
         stroke-width="1"
         data-uid="o_f43a2kin8_14"
         style="fill:#ffffff" />
      <path
         id="_GcWvwr7qTZlPzNG8SiBCy"
         d="m 88.062,31.054 c 0.413,0 0.826,-0.097 1.215,-0.317 1.165,-0.68 1.554,-2.161 0.875,-3.327 -0.657,-1.167 -2.14,-1.555 -3.304,-0.899 -1.167,0.68 -1.58,2.161 -0.899,3.328 0.462,0.778 1.262,1.215 2.113,1.215 z"
         stroke="none"
         fill="url(#g_-516872007_1)"
         transform="matrix(1.3852805,0,0,1.3852805,-5.0137982,187.49728)"
         stroke-width="1"
         data-uid="o_f43a2kin8_15"
         style="fill:#ffffff" />
      <path
         id="_XRtVhfirZvbB98UKTQ59R"
         d="m 60.759,10.504 c 0.218,0.049 0.413,0.074 0.631,0.074 1.07,0 2.042,-0.704 2.332,-1.798 0.342,-1.287 -0.413,-2.622 -1.698,-2.963 -1.312,-0.364 -2.65,0.413 -2.989,1.724 -0.339,1.287 0.436,2.623 1.724,2.963 z"
         stroke="none"
         fill="url(#g_-516872007_1)"
         transform="matrix(1.3852805,0,0,1.3852805,-5.4784026,188.14244)"
         stroke-width="1"
         data-uid="o_f43a2kin8_16"
         style="fill:#ffffff" />
      <path
         id="_AfIp7rS0l5UTuIKbNW6L5"
         d="m 70.767,14.658 c 0.365,0.218 0.802,0.315 1.215,0.315 0.826,0 1.651,-0.438 2.09,-1.214 0.678,-1.142 0.292,-2.648 -0.875,-3.304 -1.167,-0.68 -2.647,-0.291 -3.328,0.875 -0.681,1.166 -0.269,2.648 0.898,3.328 z"
         stroke="none"
         fill="url(#g_-516872007_1)"
         transform="matrix(1.3852805,0,0,1.3852805,-6.2879062,187.59776)"
         stroke-width="1"
         data-uid="o_f43a2kin8_17"
         style="fill:#ffffff" />
      <path
         id="_HkN08e0cJSHuvtrBZcai5"
         d="m 81.067,21.969 c 0.631,0 1.238,-0.243 1.725,-0.705 0.946,-0.971 0.946,-2.501 0,-3.449 -0.949,-0.948 -2.503,-0.948 -3.425,0 -0.973,0.948 -0.973,2.501 0,3.449 0.462,0.462 1.093,0.705 1.7,0.705 z"
         stroke="none"
         fill="url(#g_-488304539_2)"
         transform="matrix(1.3852805,0,0,1.3852805,-5.0377126,187.62064)"
         stroke-width="1"
         data-uid="o_f43a2kin8_18"
         style="fill:#ffffff" />
      <path
         id="_RhLojZlC3_rRPO8uTLNXV"
         d="m 50.44,2.265 c -26.312,0 -47.72,21.407 -47.72,47.72 0,26.313 21.407,47.72 47.72,47.72 26.314,0 47.721,-21.407 47.721,-47.72 0,-26.313 -21.408,-47.72 -47.721,-47.72 z M 47.96,29.008 C 44.125,28.799 40.292,28.113 36.455,26.956 39.32,21.65 43.157,16.332 47.96,11.022 Z m 0,4.893 V 47.583 H 30.224 c 0.318,-5.353 1.668,-10.744 4.033,-16.153 4.558,1.43 9.127,2.248 13.703,2.471 z m 0,18.64 v 12.71 c -4.661,0.256 -9.32,1.174 -13.974,2.788 -2.191,-5.19 -3.457,-10.362 -3.763,-15.498 z m 0,17.616 V 89.099 C 42.964,83.576 39.009,78.044 36.11,72.526 40.067,71.19 44.015,70.4 47.96,70.157 Z m 4.958,-0.014 c 3.961,0.215 7.924,0.982 11.896,2.299 -2.903,5.547 -6.874,11.107 -11.896,16.659 0,0 0,-18.958 0,-18.958 z m 0,-4.906 V 52.541 H 70.655 C 70.351,57.649 69.097,62.792 66.929,67.952 62.262,66.36 57.59,65.463 52.918,65.237 Z m 0,-17.654 V 33.905 c 4.57,-0.213 9.145,-1.02 13.72,-2.437 2.355,5.396 3.699,10.775 4.017,16.115 z m 0,-18.57 V 11.021 c 4.814,5.323 8.659,10.654 11.526,15.973 -3.852,1.146 -7.693,1.82 -11.526,2.019 z M 56.615,7.721 c 9.219,1.343 17.501,5.596 23.838,11.85 -3.774,2.368 -7.528,4.3 -11.266,5.783 C 66.095,19.452 61.9,13.567 56.615,7.721 Z M 31.721,25.297 C 28.004,23.8 24.279,21.85 20.543,19.465 26.865,13.271 35.099,9.056 44.264,7.721 38.996,13.549 34.812,19.415 31.721,25.297 Z m -2.144,4.457 c -2.56,5.941 -3.999,11.891 -4.314,17.828 H 7.8 c 0.515,-9.205 3.917,-17.643 9.365,-24.395 4.124,2.688 8.262,4.885 12.412,6.567 z m -4.314,22.787 c 0.306,5.767 1.682,11.546 4.105,17.316 -4.061,1.803 -8.115,4.145 -12.16,6.983 -5.444,-6.724 -8.855,-15.128 -9.401,-24.299 0,0 17.456,0 17.456,0 z m 6.195,21.791 C 34.541,80.32 38.761,86.291 44.1,92.223 35.018,90.864 26.858,86.675 20.578,80.536 c 3.64,-2.517 7.266,-4.596 10.88,-6.204 z m 38.018,-0.105 c 3.64,1.598 7.292,3.669 10.959,6.188 C 74.138,86.622 65.924,90.854 56.78,92.223 62.149,86.256 66.389,80.25 69.476,74.227 Z m 2.079,-4.479 c 2.395,-5.734 3.757,-11.476 4.06,-17.207 H 93.073 C 92.53,61.651 89.157,70 83.776,76.701 79.71,73.865 75.636,71.537 71.555,69.748 Z m 4.06,-22.165 c -0.313,-5.918 -1.746,-11.849 -4.289,-17.77 4.165,-1.664 8.327,-3.837 12.485,-6.499 5.391,6.731 8.759,15.12 9.271,24.269 z"
         stroke="none"
         fill="url(#g_-516872007_1)"
         transform="matrix(0.87014806,0,0,0.87014806,20.137035,214.09973)"
         stroke-width="1"
         data-uid="o_f43a2kin8_19"
         style="fill:#ffffff" />
    </g>
  </g>
</svg>
